<svg width="79" height="18" viewBox="0 0 79 18" fill="none" xmlns="http://www.w3.org/2000/svg">
<path d="M5.556 13L2.508 9.268V13H0.828V4.624H2.508V8.38L5.556 4.624H7.584L4.128 8.776L7.68 13H5.556ZM10.465 5.98V8.08H13.285V9.412H10.465V11.632H13.645V13H8.78503V4.612H13.645V5.98H10.465ZM19.4918 13L17.6438 9.736H16.8518V13H15.1718V4.624H18.3158C18.9638 4.624 19.5158 4.74 19.9718 4.972C20.4278 5.196 20.7678 5.504 20.9918 5.896C21.2238 6.28 21.3398 6.712 21.3398 7.192C21.3398 7.744 21.1798 8.244 20.8598 8.692C20.5398 9.132 20.0638 9.436 19.4318 9.604L21.4358 13H19.4918ZM16.8518 8.476H18.2558C18.7118 8.476 19.0518 8.368 19.2758 8.152C19.4998 7.928 19.6118 7.62 19.6118 7.228C19.6118 6.844 19.4998 6.548 19.2758 6.34C19.0518 6.124 18.7118 6.016 18.2558 6.016H16.8518V8.476ZM30.0233 13H28.3433L24.5393 7.252V13H22.8593V4.612H24.5393L28.3433 10.372V4.612H30.0233V13ZM31.5155 6.556C31.5555 5.756 31.8355 5.14 32.3555 4.708C32.8835 4.268 33.5755 4.048 34.4315 4.048C35.0155 4.048 35.5155 4.152 35.9315 4.36C36.3475 4.56 36.6595 4.836 36.8675 5.188C37.0835 5.532 37.1915 5.924 37.1915 6.364C37.1915 6.868 37.0595 7.296 36.7955 7.648C36.5395 7.992 36.2315 8.224 35.8715 8.344V8.392C36.3355 8.536 36.6955 8.792 36.9515 9.16C37.2155 9.528 37.3475 10 37.3475 10.576C37.3475 11.056 37.2355 11.484 37.0115 11.86C36.7955 12.236 36.4715 12.532 36.0395 12.748C35.6155 12.956 35.1035 13.06 34.5035 13.06C33.5995 13.06 32.8635 12.832 32.2955 12.376C31.7275 11.92 31.4275 11.248 31.3955 10.36H33.0275C33.0435 10.752 33.1755 11.068 33.4235 11.308C33.6795 11.54 34.0275 11.656 34.4675 11.656C34.8755 11.656 35.1875 11.544 35.4035 11.32C35.6275 11.088 35.7395 10.792 35.7395 10.432C35.7395 9.952 35.5875 9.608 35.2835 9.4C34.9795 9.192 34.5075 9.088 33.8675 9.088H33.5195V7.708H33.8675C35.0035 7.708 35.5715 7.328 35.5715 6.568C35.5715 6.224 35.4675 5.956 35.2595 5.764C35.0595 5.572 34.7675 5.476 34.3835 5.476C34.0075 5.476 33.7155 5.58 33.5075 5.788C33.3075 5.988 33.1915 6.244 33.1595 6.556H31.5155ZM40.5471 11.668H43.3071V13H38.8671V4.624H40.5471V11.668ZM51.9863 8.704C52.4583 8.792 52.8463 9.028 53.1503 9.412C53.4543 9.796 53.6063 10.236 53.6063 10.732C53.6063 11.18 53.4943 11.576 53.2703 11.92C53.0543 12.256 52.7383 12.52 52.3223 12.712C51.9063 12.904 51.4143 13 50.8463 13H47.2343V4.624H50.6903C51.2583 4.624 51.7463 4.716 52.1543 4.9C52.5703 5.084 52.8823 5.34 53.0903 5.668C53.3063 5.996 53.4143 6.368 53.4143 6.784C53.4143 7.272 53.2823 7.68 53.0182 8.008C52.7623 8.336 52.4183 8.568 51.9863 8.704ZM48.9143 8.08H50.4503C50.8503 8.08 51.1583 7.992 51.3743 7.816C51.5903 7.632 51.6983 7.372 51.6983 7.036C51.6983 6.7 51.5903 6.44 51.3743 6.256C51.1583 6.072 50.8503 5.98 50.4503 5.98H48.9143V8.08ZM50.6063 11.632C51.0143 11.632 51.3303 11.536 51.5543 11.344C51.7863 11.152 51.9023 10.88 51.9023 10.528C51.9023 10.168 51.7823 9.888 51.5423 9.688C51.3023 9.48 50.9783 9.376 50.5703 9.376H48.9143V11.632H50.6063ZM55.7972 5.56C55.5012 5.56 55.2532 5.468 55.0532 5.284C54.8612 5.092 54.7652 4.856 54.7652 4.576C54.7652 4.296 54.8612 4.064 55.0532 3.88C55.2532 3.688 55.5012 3.592 55.7972 3.592C56.0932 3.592 56.3372 3.688 56.5292 3.88C56.7292 4.064 56.8292 4.296 56.8292 4.576C56.8292 4.856 56.7292 5.092 56.5292 5.284C56.3372 5.468 56.0932 5.56 55.7972 5.56ZM56.6252 6.352V13H54.9452V6.352H56.6252ZM62.221 13L59.965 10.168V13H58.285V4.12H59.965V9.172L62.197 6.352H64.381L61.453 9.688L64.405 13H62.221ZM71.4728 9.532C71.4728 9.772 71.4568 9.988 71.4248 10.18H66.5648C66.6048 10.66 66.7728 11.036 67.0688 11.308C67.3648 11.58 67.7288 11.716 68.1608 11.716C68.7848 11.716 69.2288 11.448 69.4928 10.912H71.3048C71.1128 11.552 70.7448 12.08 70.2008 12.496C69.6568 12.904 68.9888 13.108 68.1968 13.108C67.5568 13.108 66.9808 12.968 66.4688 12.688C65.9648 12.4 65.5688 11.996 65.2808 11.476C65.0008 10.956 64.8608 10.356 64.8608 9.676C64.8608 8.988 65.0008 8.384 65.2808 7.864C65.5608 7.344 65.9528 6.944 66.4568 6.664C66.9608 6.384 67.5408 6.244 68.1968 6.244C68.8288 6.244 69.3928 6.38 69.8888 6.652C70.3928 6.924 70.7808 7.312 71.0528 7.816C71.3328 8.312 71.4728 8.884 71.4728 9.532ZM69.7328 9.052C69.7248 8.62 69.5688 8.276 69.2648 8.02C68.9608 7.756 68.5888 7.624 68.1488 7.624C67.7328 7.624 67.3808 7.752 67.0928 8.008C66.8128 8.256 66.6408 8.604 66.5768 9.052H69.7328ZM75.2431 13.108C74.6991 13.108 74.2111 13.012 73.7791 12.82C73.3471 12.62 73.0031 12.352 72.7471 12.016C72.4991 11.68 72.3631 11.308 72.3391 10.9H74.0311C74.0631 11.156 74.1871 11.368 74.4031 11.536C74.6271 11.704 74.9031 11.788 75.2311 11.788C75.5511 11.788 75.7991 11.724 75.9751 11.596C76.1591 11.468 76.2511 11.304 76.2511 11.104C76.2511 10.888 76.1391 10.728 75.9151 10.624C75.6991 10.512 75.3511 10.392 74.8711 10.264C74.3751 10.144 73.9671 10.02 73.6471 9.892C73.3351 9.764 73.0631 9.568 72.8311 9.304C72.6071 9.04 72.4951 8.684 72.4951 8.236C72.4951 7.868 72.5991 7.532 72.8071 7.228C73.0231 6.924 73.3271 6.684 73.7191 6.508C74.1191 6.332 74.5871 6.244 75.1231 6.244C75.9151 6.244 76.5471 6.444 77.0191 6.844C77.4911 7.236 77.7511 7.768 77.7991 8.44H76.1911C76.1671 8.176 76.0551 7.968 75.8551 7.816C75.6631 7.656 75.4031 7.576 75.0751 7.576C74.7711 7.576 74.5351 7.632 74.3671 7.744C74.2071 7.856 74.1271 8.012 74.1271 8.212C74.1271 8.436 74.2391 8.608 74.4631 8.728C74.6871 8.84 75.0351 8.956 75.5071 9.076C75.9871 9.196 76.3831 9.32 76.6951 9.448C77.0071 9.576 77.2751 9.776 77.4991 10.048C77.7311 10.312 77.8511 10.664 77.8591 11.104C77.8591 11.488 77.7511 11.832 77.5351 12.136C77.3271 12.44 77.0231 12.68 76.6231 12.856C76.2311 13.024 75.7711 13.108 75.2431 13.108Z" fill="white"/>
</svg>
